<svg xmlns="http://www.w3.org/2000/svg" width="400" height="280" viewBox="0 0 400 280">
  <defs>
    <linearGradient id="sky" x1="0" y1="0" x2="0" y2="1">
      <stop offset="0%" stop-color="#0f2027"/>
      <stop offset="100%" stop-color="#203a43"/>
    </linearGradient>
  </defs>
  <rect width="400" height="280" fill="url(#sky)"/>
  <!-- Ocean -->
  <ellipse cx="200" cy="260" rx="300" ry="80" fill="#00b4d8" opacity="0.6"/>
  <ellipse cx="200" cy="270" rx="300" ry="70" fill="#0096c7" opacity="0.8"/>
  <!-- Sun -->
  <circle cx="200" cy="110" r="45" fill="#f9c74f" opacity="0.9"/>
  <circle cx="200" cy="110" r="60" fill="#f9c74f" opacity="0.2"/>
  <!-- Palm tree left -->
  <rect x="60" y="160" width="8" height="90" fill="#5c3d2e" rx="4"/>
  <ellipse cx="64" cy="155" rx="35" ry="18" fill="#4caf50" opacity="0.9"/>
  <ellipse cx="40" cy="165" rx="28" ry="12" fill="#388e3c" opacity="0.9"/>
  <ellipse cx="88" cy="162" rx="28" ry="12" fill="#4caf50" opacity="0.8"/>
  <!-- Palm tree right -->
  <rect x="332" y="170" width="8" height="80" fill="#5c3d2e" rx="4"/>
  <ellipse cx="336" cy="165" rx="32" ry="16" fill="#4caf50" opacity="0.9"/>
  <ellipse cx="314" cy="174" rx="26" ry="11" fill="#388e3c"/>
  <ellipse cx="358" cy="172" rx="26" ry="11" fill="#4caf50" opacity="0.8"/>
  <!-- Sand -->
  <ellipse cx="200" cy="272" rx="320" ry="30" fill="#f4d03f" opacity="0.5"/>
  <!-- Label -->
  <text x="200" y="248" font-family="Inter,Arial,sans-serif" font-size="13" fill="#fff" text-anchor="middle" opacity="0.85">🌴 Tropical Beach</text>
</svg>
